<?xml version="1.0" encoding="UTF-8" standalone="no"?>
<svg width="398px" height="37px" viewBox="0 0 398 37" version="1.1" xmlns="http://www.w3.org/2000/svg" xmlns:xlink="http://www.w3.org/1999/xlink" xmlns:sketch="http://www.bohemiancoding.com/sketch/ns">
    <title>logo</title>
    <description>Created with Sketch (http://www.bohemiancoding.com/sketch)</description>
    <defs></defs>
    <g id="Design" stroke="none" stroke-width="1" fill="none" fill-rule="evenodd" sketch:type="MSPage">
        <g id="Desktop" sketch:type="MSArtboardGroup" transform="translate(-589.000000, -261.000000)" fill="#FFFFFF">
            <path d="M611.512585,271.030529 C611.512585,274.682051 609.360325,277.408521 606.374076,278.479634 C610.04444,279.453374 612.590245,282.619041 612.590245,286.707731 C612.590245,292.25906 608.282665,296.252405 601.822824,296.252405 L589,296.252405 L589,261.730304 L600.941937,261.730304 C607.597531,261.730304 611.512585,265.625262 611.512585,271.030529 Z M605.640003,271.517399 C605.640003,268.596181 603.584599,266.696375 600.012112,266.696375 L594.823644,266.696375 L594.823644,276.337408 L600.158926,276.337408 C603.584599,276.337408 605.640003,274.389929 605.640003,271.517399 Z M606.618767,286.31925 C606.618767,283.348331 604.612301,281.255806 600.990875,281.255806 L594.823644,281.255806 L594.823644,291.28532 L600.795123,291.28532 C604.318672,291.28532 606.618767,289.386529 606.618767,286.31925 Z M623.398448,287.585111 L620.168527,296.252405 L613.952358,296.252405 L627.460317,261.730304 L634.263745,261.730304 L647.771704,296.252405 L641.359782,296.252405 L638.080923,287.585111 L623.398448,287.585111 Z M636.025519,282.180858 L630.739176,268.05961 L625.453851,282.180858 L636.025519,282.180858 Z M657.445152,286.31925 L657.445152,296.252405 L651.57155,296.252405 L651.57155,261.730304 L657.445152,261.730304 L657.445152,278.284887 L672.372319,261.730304 L680.105572,261.730304 L666.058273,276.970339 L680.252386,296.252405 L672.8617,296.252405 L662.045342,281.303478 L657.445152,286.31925 Z M690.017594,286.31925 L690.017594,296.252405 L684.145011,296.252405 L684.145011,261.730304 L690.017594,261.730304 L690.017594,278.284887 L704.94578,261.730304 L712.678013,261.730304 L698.631734,276.970339 L712.825847,296.252405 L705.435162,296.252405 L694.618803,281.303478 L690.017594,286.31925 Z M716.718472,261.730304 L738.154418,261.730304 L738.154418,267.183244 L722.591055,267.183244 L722.591055,276.337408 L736.686272,276.337408 L736.686272,281.644287 L722.591055,281.644287 L722.591055,290.798451 L738.154418,290.798451 L738.154418,296.252405 L716.718472,296.252405 L716.718472,261.730304 Z M749.858801,270.104462 L749.858801,296.252405 L743.986218,296.252405 L743.986218,261.730304 L751.473761,261.730304 L767.232877,286.221876 L767.232877,261.730304 L773.106478,261.730304 L773.106478,296.252405 L766.988186,296.252405 L749.858801,270.104462 Z M866.979097,271.030529 C866.979097,274.682051 864.825817,277.408521 861.839568,278.479634 C865.510951,279.453374 868.055737,282.619041 868.055737,286.707731 C868.055737,292.25906 863.749176,296.252405 857.288316,296.252405 L844.465492,296.252405 L844.465492,261.730304 L856.407429,261.730304 C863.063022,261.730304 866.979097,265.625262 866.979097,271.030529 Z M861.105495,271.517399 C861.105495,268.596181 859.05111,266.696375 855.477603,266.696375 L850.290155,266.696375 L850.290155,276.337408 L855.624418,276.337408 C859.05111,276.337408 861.105495,274.389929 861.105495,271.517399 Z M862.084259,286.31925 C862.084259,283.348331 860.078812,281.255806 856.456367,281.255806 L850.290155,281.255806 L850.290155,291.28532 L856.260614,291.28532 C859.785183,291.28532 862.084259,289.386529 862.084259,286.31925 Z M895.206235,287.487737 L881.649338,287.487737 L876.020427,296.252405 L868.728637,296.252405 L891.731624,261.730304 L916.6432,261.730304 L916.6432,267.183244 L901.078818,267.183244 L901.078818,276.337408 L915.175054,276.337408 L915.175054,281.644287 L901.078818,281.644287 L901.078818,290.798451 L916.6432,290.798451 L916.6432,296.252405 L895.206235,296.252405 L895.206235,287.487737 Z M895.206235,266.501627 L884.879258,282.47298 L895.206235,282.47298 L895.206235,266.501627 Z M964.192766,286.31925 L964.192766,296.252405 L958.319164,296.252405 L958.319164,261.730304 L964.192766,261.730304 L964.192766,278.284887 L979.118913,261.730304 L986.852166,261.730304 L972.805887,276.970339 L987,296.252405 L979.609314,296.252405 L968.791936,281.303478 L964.192766,286.31925 Z M937.826298,291.382694 C931.903758,291.382694 926.323785,287.097227 926.323785,279.015191 C926.323785,270.641033 932.050573,266.501627 937.77736,266.501627 C943.159541,266.501627 946.322171,269.374158 947.583349,273.115954 L953.134775,271.35308 C951.312847,265.688149 946.171279,261 937.77736,261 C928.771714,261 920.304388,267.767488 920.304388,279.015191 C920.304388,290.262894 928.477065,296.981695 937.826298,296.981695 C946.136614,296.981695 951.302651,292.053154 953.203084,286.618472 L947.790317,284.797782 C946.372129,288.298172 943.141189,291.382694 937.826298,291.382694 Z M820.900735,287.280817 C822.43719,284.212524 823.360899,280.524487 823.307882,276.31915 L817.955268,276.31915 C817.948131,276.40841 817.937936,276.493612 817.930799,276.581857 C817.922643,276.684303 817.913467,276.786748 817.908369,276.899337 C817.864529,277.350705 817.881861,277.826418 817.775828,278.416747 C817.692225,278.991862 817.627994,279.619721 817.460788,280.260766 C817.387381,280.582303 817.330287,280.919054 817.240567,281.252763 C817.145749,281.563142 817.048892,281.880622 816.949996,282.202159 L804.970336,266.803892 L817.896134,266.803892 L817.896134,261.732333 L794.283459,261.732333 L798.381013,266.949953 L801.811784,271.36018 C801.597679,271.432196 801.383575,271.504212 801.171509,271.586372 C800.029618,272.040783 798.955017,272.700086 797.968097,273.48212 C796.992392,274.282412 796.156364,275.250066 795.446761,276.298864 C794.743274,277.355777 794.225345,278.521221 793.835879,279.721152 C793.664595,280.321625 793.495351,280.922097 793.395435,281.632115 L793.314891,282.143328 C793.288383,282.315761 793.289402,282.406035 793.276148,282.540939 L793.212936,283.287472 L793.2058,283.448748 L793.207839,283.653639 L793.210897,283.887945 L793.218034,284.356557 C793.214976,284.66795 793.246581,284.980358 793.282266,285.292766 C793.330184,285.918597 793.455588,286.537327 793.588129,287.153014 C793.897052,288.37526 794.336476,289.572148 794.968594,290.672676 C795.606829,291.766104 796.375567,292.786502 797.296216,293.648667 C798.228081,294.494603 799.255783,295.223893 800.364029,295.752349 C800.918662,296.007956 801.481451,296.249362 802.053416,296.418752 L802.911873,296.663201 C803.194287,296.732174 803.510347,296.780861 803.809073,296.832591 C804.22097,296.923879 804.82658,296.981695 805.495402,297.007053 L805.681979,297.01821 L805.794129,297.016182 C806.653606,297.034439 807.601783,296.98981 808.533648,296.867078 C809.063811,296.796076 809.539939,296.708845 809.994656,296.595242 C810.092533,296.571913 810.18939,296.540469 810.286246,296.515112 C810.415729,296.478596 810.551328,296.448167 810.675713,296.407595 C812.772918,295.779736 814.834439,294.610234 816.654328,292.965021 C816.71754,292.913291 816.778713,292.862575 816.841924,292.810845 C817.201824,292.466993 817.483218,292.167771 817.763594,291.864492 L821.197423,296.277763 L827.900935,296.277763 L820.900735,287.280817 Z M806.704583,291.394866 C806.488439,291.40298 806.292686,291.406023 806.101012,291.400952 L805.982745,291.401966 L805.898122,291.40298 L805.843067,291.397909 C805.778835,291.390809 805.705428,291.383708 805.63406,291.377623 C805.232359,291.341107 804.824541,291.309664 804.688941,291.247791 C804.558439,291.213304 804.440172,291.200118 804.294377,291.16056 L803.829464,291.01247 C803.518503,290.915096 803.224874,290.77005 802.929206,290.630075 C801.766924,290.025545 800.766749,289.055863 800.077537,287.828546 C799.731911,287.214887 799.496396,286.529212 799.318995,285.824266 C799.251705,285.464185 799.1732,285.106133 799.154848,284.733881 C799.133438,284.549276 799.112027,284.365685 799.121203,284.177024 L799.120183,283.896059 L799.118144,283.75507 L799.117125,283.685082 L799.164024,282.999408 C799.174219,282.886819 799.178298,282.725543 799.19461,282.651499 L799.24049,282.425307 C799.273115,282.143328 799.372011,281.782233 799.465809,281.423167 C799.690109,280.731406 799.970484,280.062975 800.355873,279.47366 C801.12461,278.294015 802.186976,277.394321 803.386982,276.866879 C803.994631,276.626487 804.615534,276.416524 805.269063,276.359723 C805.400584,276.332336 805.535164,276.326251 805.669744,276.31915 L814.306315,287.419778 C812.397725,289.825726 810.037477,290.92524 807.905608,291.27112 C807.49575,291.33705 807.09303,291.380666 806.704583,291.394866 Z" id="Logo-(final)" sketch:type="MSShapeGroup"></path>
        </g>
    </g>
</svg>