<?xml version="1.0" encoding="utf-8"?>
<svg version="1.1" xmlns="http://www.w3.org/2000/svg" width="100" height="100" viewBox="0 0 100 100" enable-background="new 0 0 100 100" xml:space="preserve">
<path fill-rule="evenodd" clip-rule="evenodd" fill="#FFFFFF" d="M85.35,85.35C75.583,95.116,63.8,100,50,100
	s-25.6-4.884-35.4-14.65C4.867,75.583,0,63.8,0,50s4.867-25.6,14.6-35.4C24.4,4.867,36.2,0,50,0s25.583,4.867,35.35,14.6
	C95.116,24.4,100,36.2,100,50S95.116,75.583,85.35,85.35z M56.75,68.75H44.3v11.8h12.45V68.75z M41.35,39.2
	c0-2.3,0.633-4.517,1.9-6.65c1.3-2.133,3.5-3.2,6.6-3.2c3.133,0,5.284,0.867,6.45,2.6c1.2,1.733,1.8,3.65,1.8,5.75
	c0,1.8-0.533,3.466-1.6,5c-0.6,0.867-1.366,1.667-2.3,2.4l-2.95,2.35c-2.867,2.3-4.65,4.333-5.35,6.1c-0.7,1.8-1.133,5-1.3,9.601
	h11.2c0-2.167,0.167-3.784,0.5-4.851c0.533-1.633,1.584-3.066,3.15-4.3l2.85-2.25c2.934-2.333,4.917-4.233,5.95-5.7
	c1.733-2.433,2.6-5.433,2.6-9c0-5.767-2.05-10.133-6.149-13.1c-4.101-2.967-9.233-4.45-15.4-4.45c-4.7,0-8.683,1.05-11.95,3.15
	c-5.1,3.233-7.817,8.75-8.15,16.55H41.35z"/>
</svg>